<?xml version="1.0" encoding="UTF-8" standalone="no"?>
<!-- Created with Inkscape (http://www.inkscape.org/) -->

<svg
   xmlns:dc="http://purl.org/dc/elements/1.1/"
   xmlns:cc="http://creativecommons.org/ns#"
   xmlns:rdf="http://www.w3.org/1999/02/22-rdf-syntax-ns#"
   xmlns:svg="http://www.w3.org/2000/svg"
   xmlns="http://www.w3.org/2000/svg"
   xmlns:sodipodi="http://sodipodi.sourceforge.net/DTD/sodipodi-0.dtd"
   xmlns:inkscape="http://www.inkscape.org/namespaces/inkscape"
   width="256"
   height="256"
   id="svg1901"
   sodipodi:version="0.32"
   inkscape:version="0.48.4 r9939"
   sodipodi:docname="freefall.svg"
   version="1.1"
   inkscape:export-filename="/home/theo/ComicshelfWorkspace/ComicShelf/graphics/freefall.png"
   inkscape:export-xdpi="90"
   inkscape:export-ydpi="90">
  <defs
     id="defs1903">
    <marker
       inkscape:stockid="Arrow1Lstart"
       orient="auto"
       refY="0"
       refX="0"
       id="Arrow1Lstart"
       style="overflow:visible">
      <path
         id="path4409"
         d="M 0,0 5,-5 -12.5,0 5,5 0,0 z"
         style="fill-rule:evenodd;stroke:#000000;stroke-width:1pt"
         transform="matrix(0.8,0,0,0.8,10,0)"
         inkscape:connector-curvature="0" />
    </marker>
    <marker
       inkscape:stockid="Arrow2Lend"
       orient="auto"
       refY="0"
       refX="0"
       id="Arrow2Lend"
       style="overflow:visible">
      <path
         id="path4430"
         style="fill-rule:evenodd;stroke-width:0.625;stroke-linejoin:round"
         d="M 8.7185878,4.0337352 -2.2072895,0.01601326 8.7185884,-4.0017078 c -1.7454984,2.3720609 -1.7354408,5.6174519 -6e-7,8.035443 z"
         transform="matrix(-1.1,0,0,-1.1,-1.1,0)"
         inkscape:connector-curvature="0" />
    </marker>
    <inkscape:path-effect
       effect="skeletal"
       id="path-effect2995"
       is_visible="true"
       pattern="M 0,0 0,10 10,5 z"
       copytype="single_stretched"
       prop_scale="1"
       scale_y_rel="false"
       spacing="0"
       normal_offset="0"
       tang_offset="0"
       prop_units="false"
       vertical_pattern="false"
       fuse_tolerance="0" />
  </defs>
  <sodipodi:namedview
     id="base"
     pagecolor="#ffffff"
     bordercolor="#666666"
     borderopacity="1.0"
     inkscape:pageopacity="0.0"
     inkscape:pageshadow="2"
     inkscape:zoom="1.8101934"
     inkscape:cx="123.26"
     inkscape:cy="30.054898"
     inkscape:document-units="px"
     inkscape:current-layer="g3939"
     inkscape:window-width="1360"
     inkscape:window-height="706"
     inkscape:window-x="0"
     inkscape:window-y="27"
     showgrid="false"
     inkscape:window-maximized="1"
     fit-margin-top="0"
     fit-margin-left="0"
     fit-margin-right="0"
     fit-margin-bottom="0" />
  <metadata
     id="metadata1906">
    <rdf:RDF>
      <cc:Work
         rdf:about="">
        <dc:format>image/svg+xml</dc:format>
        <dc:type
           rdf:resource="http://purl.org/dc/dcmitype/StillImage" />
        <dc:title></dc:title>
      </cc:Work>
    </rdf:RDF>
  </metadata>
  <g
     inkscape:label="Taso 1"
     inkscape:groupmode="layer"
     id="layer1"
     transform="translate(-160.19337,-300.18704)">
    <g
       id="g5791"
       transform="matrix(2.6450917,0,0,2.6450917,-226.69286,-908.1937)">
      <path
         inkscape:connector-curvature="0"
         id="path4263"
         d="m 172.58713,517.04704 -8.66205,14.4073 1.81196,2.38649 3.62392,3.49134 4.81716,3.0052 5.65686,1.85616 11.40209,1.01646 6.18719,-4.94975 6.98268,-5.65685 -0.39775,-2.47487 0,-3.27037 0.97227,-4.28684 -0.26516,-2.74004 -5.08233,-3.62392 -3.53554,1.10486 -5.17071,0.53033 -4.5962,-0.97228 -4.72878,-1.81196 -4.81716,-0.13258 z"
         style="fill:#7ae6f7;fill-opacity:1;stroke:none" />
      <path
         inkscape:connector-curvature="0"
         id="path4234"
         d="m 181.93242,536.86161 c 0.42528,-0.5871 0.66676,-1.18952 0.66676,-1.66343 0,-0.5292 0.10075,-0.743 0.35031,-0.743 0.53517,0 3.21329,-1.11227 4.0729,-1.69155 0.42002,-0.28303 0.80807,-0.47021 0.86233,-0.41595 0.1997,0.1997 -0.48433,2.14395 -1.09068,3.10007 -0.34368,0.54193 -1.04387,1.28884 -1.55597,1.6598 -0.82185,0.59535 -1.10957,0.6745 -2.45177,0.6745 l -1.52065,0 0.66677,-0.92044 0,0 z"
         style="color:#000000;fill:#e98481;fill-opacity:1;stroke:none;stroke-width:0.53033006;marker:none;visibility:visible;display:inline;overflow:visible;enable-background:accumulate" />
      <path
         sodipodi:nodetypes="ccscscsscsscsscsccsccccscsscccccsccsscc"
         inkscape:connector-curvature="0"
         id="path4261"
         d="m 190.51242,517.5273 c -2.50449,-0.20164 -6.15325,-1.00321 -8.05715,-1.8954 -0.58748,-0.27531 -1.35811,-0.64798 -1.79846,-0.75178 -1.15734,-0.2728 -3.01442,-0.20052 -4.20039,0.10278 -1.00502,0.25704 -2.47524,1.61007 -3.38622,1.64694 l -0.61853,0.23873 -0.84663,-0.83826 c -0.80348,-0.79552 -0.95211,-1.28709 -0.95177,-3.20815 2e-4,-1.11676 0.10699,-1.59422 0.60364,-3.45534 1.21951,-4.56954 1.4502,-6.12667 2.75256,-7.48603 0.97397,-1.01661 2.36521,-1.03844 3.76425,-0.4431 0.48468,0.20625 0.81089,0.24929 0.93497,0.24843 0.12408,-8.7e-4 0.1049,-0.10623 0.4348,-0.4824 1.2186,-1.38949 3.35086,-2.69885 5.30141,-3.10134 1.44481,-0.29814 4.16268,-0.38831 5.94149,-0.12019 4.78147,0.72066 9.11771,2.90889 10.53791,8.29348 l 0.6555,1.27278 -0.0729,1.32097 c -0.22775,3.56765 -0.85483,5.81198 -2.12747,7.18758 -1.07806,1.16527 -5.24725,1.78974 -8.63268,1.51717 l -0.0156,0.0234 z m -15.11574,-6.64732 c 0.47398,-0.24511 0.6898,-0.46311 0.68955,-1.31973 -2.4e-4,-0.81603 -0.28161,-0.9414 -0.82146,-1.25303 -0.17633,-0.15201 0.0378,-0.32879 -0.35951,-0.0994 -0.53363,0.30804 -0.87645,0.5596 -0.87669,1.3519 -2.6e-4,0.87521 0.29929,1.02916 0.76077,1.31055 0.47383,0.28894 0.12141,0.26103 0.60734,0.01 z m 7.73288,-1.57946 c 0.69509,-0.35461 0.56499,0.66749 0.56801,-0.47409 0.003,-1.10471 -0.26832,-0.45848 -0.98263,-0.85994 l 0.0337,-0.74661 -0.36791,0.58929 c -0.66181,0.36218 -0.79675,0.0977 -0.78382,1.11998 0.0123,0.97222 0.17749,1.06504 0.77004,1.37819 0.55662,0.29416 1.14713,0.64484 0.92831,0.0322 l -0.16573,-0.46404 z"
         style="color:#000000;fill:#ffffff;fill-opacity:1;fill-rule:nonzero;stroke:none;stroke-width:3;marker:none;visibility:visible;display:inline;overflow:visible;enable-background:accumulate" />
      <path
         sodipodi:nodetypes="cccc"
         inkscape:connector-curvature="0"
         id="path4265"
         d="m 189.51977,517.77429 c 1.16216,2.7695 0.45959,5.539 0.0442,8.3085 2.76951,-2.46645 5.22922,-5.02142 6.36396,-7.95495 z"
         style="fill:#ffffff;fill-opacity:1;stroke:none" />
      <path
         sodipodi:nodetypes="ccccccccccc"
         inkscape:connector-curvature="0"
         id="path4267"
         d="m 180.52216,541.98588 c 14.22033,-0.13276 15.6184,-13.89964 17.65961,-25.41475 l 4.44766,1.64533 2.2683,2.53867 -0.73299,4.26019 -0.5183,4.07345 -0.61871,4.06586 -3.71232,3.44715 -7.72417,6.50412 -2.88243,0.47855 z"
         style="fill:#65cae7;fill-opacity:1;stroke:none" />
      <path
         inkscape:connector-curvature="0"
         id="path4269"
         d="m 165.72963,491.84127 8.25,5.75 11,-4.75 -8,-5.625 z"
         style="fill:#c3c81f;fill-opacity:1;stroke:none" />
      <path
         sodipodi:nodetypes="ccccc"
         inkscape:connector-curvature="0"
         id="path4271"
         d="m 173.99691,497.86861 c 0.17677,0 0.17677,-5.25911 0.17677,-5.25911 l 6.4738,-2.79496 4.06456,2.89407 z"
         style="fill:#eef51d;fill-opacity:1;stroke:none" />
      <path
         sodipodi:nodetypes="cssscccsssscc"
         inkscape:connector-curvature="0"
         id="path4275"
         d="m 215.27694,498.09465 c -0.75483,-0.65335 -1.98609,-1.49068 -3.1812,-2.08453 -4.04156,-2.00823 -7.95047,-2.9313 -12.54903,-2.18082 -2.4152,0.39416 -4.01125,1.13288 -5.88766,2.76691 l -1.22466,1.06647 -0.8071,-0.12794 c -0.26091,-0.17096 -14.47067,-10.01183 -14.66365,-10.16838 -0.15255,-0.12376 4.83327,-1.67645 6.93549,-1.95236 6.56545,-0.86166 14.60141,-0.20373 20.48661,1.63652 1.84015,0.5754 5.16989,2.88577 6.78096,4.09173 2.28999,1.71416 4.81043,4.5301 5.98778,6.58719 0.3995,0.69801 -0.21641,1.34791 -0.84629,0.80271 z"
         style="color:#000000;fill:#405c9b;fill-opacity:1;fill-rule:nonzero;stroke:none;stroke-width:3;marker:none;visibility:visible;display:inline;overflow:visible;enable-background:accumulate" />
      <path
         sodipodi:nodetypes="ccccc"
         inkscape:connector-curvature="0"
         id="path4277"
         d="m 174.08085,497.54853 -0.0442,4.86135 -11.97662,-8.88302 4.02167,-1.72357 z"
         style="fill:#405c9b;fill-opacity:1;stroke:none" />
      <path
         inkscape:connector-curvature="0"
         id="path4366"
         d="m 199,516.67468 8.1875,4.5625 4.3125,-2.375 1.875,-0.4375 0.875,-11.375 -2.6875,-8.6875 -8.1875,-1.25 -6.375,0.3125 -1.9375,1.8125 3.75,2.75 2.4375,4.25 0.625,2.125 -0.25,3.1875 -1.5,4 z"
         style="fill:#637dc0;fill-opacity:1;stroke:none" />
      <path
         sodipodi:nodetypes="ccccccccccccccc"
         inkscape:connector-curvature="0"
         id="path4279"
         d="m 195.5,499.48718 c 18.45467,-3.78983 19.52038,6.39417 16.97747,18.66655 1.36585,0.0586 2.46269,-0.33109 3.45526,-0.8946 l 0.53033,-1.14905 0.70711,-2.65165 0.70711,-3.09359 0.53033,-5.74525 0,-3.88908 -2.91682,-2.74004 -5.56846,-3.35876 -6.98268,-1.14905 -4.15426,0.44194 -5.3033,2.74004 -0.97227,1.5026 z"
         style="fill:#405c9b;fill-opacity:1;stroke:none" />
      <path
         inkscape:connector-curvature="0"
         id="path4368"
         d="m 214.9375,518.26843 1.8125,2.40625 2.5,-3.625 1.59375,-12.21875 -2.34375,-0.90625 -1.3125,10.15625 -1.15625,3.28125 z"
         style="fill:#637dc0;fill-opacity:1;stroke:none" />
      <path
         sodipodi:nodetypes="cccccccccccc"
         inkscape:connector-curvature="0"
         id="path4283"
         d="m 215.9375,519.79968 c 3.27884,-5.66276 3.9467,-10.67603 4.125,-15 l 2.8125,1.3125 1.0625,2.4375 2.75,3.625 1.1875,2.375 -0.375,0.9375 -3.3125,3.6875 -2.375,3.1875 -2.125,1.25 -3.375,-2.875 z"
         style="fill:#405c9b;fill-opacity:1;stroke:none" />
      <path
         inkscape:connector-curvature="0"
         id="path4372"
         d="m 204.59375,520.48718 -0.125,3.3125 -0.75,4.46875 0.0625,4.4375 0.71875,0.15625 3.5625,-0.65625 4.59375,-2.0625 0.6875,-1.96875 -0.3125,-5.8125 -1.375,-2.4375 -2.03125,-0.40625 -2.25,1.5625 z"
         style="fill:#637dc0;fill-opacity:1;stroke:none" />
      <path
         sodipodi:nodetypes="ccccccc"
         inkscape:connector-curvature="0"
         id="path4281"
         d="m 207,520.86218 c 7.36635,-1.30318 5.50005,6.72634 5.125,9.625 l 3.56694,-3.02903 4.30806,-3.84597 -5.875,-5.25 -4.75,1.25 z"
         style="fill:#405c9b;fill-opacity:1;stroke:none" />
      <path
         inkscape:connector-curvature="0"
         id="path4296"
         d="m 233.3951,555.2816 c -4.08704,-2.81219 -7.55147,-8.00029 -8.5721,-12.837 -0.17984,-0.8522 -0.20803,-1.24408 -0.20715,-2.87901 l 0.001,-1.89253 0.81731,-1.35181 c 0.44952,-0.7435 1.49614,-2.56843 2.32582,-4.05542 1.37889,-2.47133 1.54474,-2.72839 1.93034,-2.99204 1.08991,-0.74522 2.28109,-1.08422 3.93654,-1.12031 0.97175,-0.0212 1.54994,0.049 5.70001,0.69258 l 4.61856,0.71615 1.1e-4,13.09001 1.1e-4,13.09001 -4.94058,0 -4.94058,0 -0.66941,-0.46063 0,0 z"
         style="color:#000000;fill:#405c9b;fill-opacity:1;fill-rule:nonzero;stroke:none;stroke-width:3;marker:none;visibility:visible;display:inline;overflow:visible;enable-background:accumulate" />
      <path
         inkscape:connector-curvature="0"
         id="path4298"
         d="m 226.68718,548.12292 17.23573,4.77297 0,-16.70539 -15.99829,-5.03814 -2.65165,4.33103 -1.23744,5.21491 z"
         style="fill:#637dc0;fill-opacity:1;stroke:none" />
      <path
         sodipodi:nodetypes="cccccccccc"
         inkscape:connector-curvature="0"
         id="path4300-2"
         d="m 202.40932,555.86274 c 29.34935,0.42242 0.11854,0.0417 29.34068,0.49944 l 0.0625,-1.125 -1.4375,-0.9375 -2.625,-1.5625 -2.5,-3.6875 -1.125,-2.875 -0.5625,-6.9375 c -5.29169,6.40338 -11.65966,11.91282 -21.5,12.8125 z"
         style="fill:#637dc0;fill-opacity:1;stroke:none" />
      <path
         sodipodi:nodetypes="ccccccccccccc"
         inkscape:connector-curvature="0"
         id="path4300"
         d="m 202.40932,555.86274 1.76776,0 -0.44194,-2.62956 c 6.51983,-1.16485 12.62461,-5.37344 18.64994,-10.16466 1.32465,10.3708 7.85146,13.07109 9.36492,13.29366 l 0.0625,-1.125 -1.4375,-0.9375 -2.625,-1.5625 -2.5,-3.6875 -1.125,-2.875 -0.5625,-6.9375 c -5.29169,6.40338 -11.65966,11.91282 -21.5,12.8125 z"
         style="fill:#405c9b;fill-opacity:1;stroke:none" />
      <path
         inkscape:connector-curvature="0"
         id="path4362"
         d="m 172.82031,556.23718 7.5625,0 -1.0625,-4.375 -2.4375,-3.625 z"
         style="fill:#637dc0;fill-opacity:1;stroke:none" />
      <path
         inkscape:connector-curvature="0"
         id="path4360"
         d="m 170.75,556.23718 2.5625,0 4.3125,-6.625 -0.9375,-1.8125 z"
         style="fill:#8095cc;fill-opacity:1;stroke:none" />
      <path
         inkscape:connector-curvature="0"
         id="path4364"
         d="m 173.59471,502.10053 0,-4.68459 1.14905,0.30936 10.34144,-4.94975 6.89429,5.43589 -4.77297,-0.7513 -5.08233,0.97227 -3.44715,3.13779 -1.41421,-0.66292 -2.12132,-0.0884 z"
         style="fill:#637dc0;fill-opacity:1;stroke:none" />
      <path
         sodipodi:nodetypes="sccccscs"
         inkscape:connector-curvature="0"
         id="path4370"
         d="m 230.14668,554.16271 c -2.94068,-2.17136 -4.96986,-5.27481 -5.91597,-9.04791 -0.16366,-0.65271 -0.32407,-1.4473 -0.32272,-1.59859 4.3e-4,-0.0475 0.44615,0.0867 0.55822,0.41975 0.76941,2.28514 2.22513,4.25063 3.69992,6.32108 0.96315,1.35211 1.45433,2.70533 2.4477,3.72684 0.21826,0.22444 0.0864,0.5294 0.0581,0.52916 -0.0282,-2e-4 -0.26466,-0.15788 -0.52529,-0.35033 z"
         style="color:#000000;fill:#637dc0;fill-opacity:1;fill-rule:nonzero;stroke:none;stroke-width:3;marker:none;visibility:visible;display:inline;overflow:visible;enable-background:accumulate" />
      <path
         inkscape:connector-curvature="0"
         id="path4374"
         d="m 230.71875,525.17468 c 0,0 -0.46875,2.5 -0.6875,2.78125 -0.21875,0.28125 -0.84375,1.15625 -0.84375,1.15625 l 4.28125,-1.4375 z"
         style="fill:#637dc0;fill-opacity:1;stroke:none" />
      <path
         inkscape:connector-curvature="0"
         id="path4376"
         d="m 200.85555,535.18204 1.0625,16.875 2.75,-0.75 5.5625,-1.9375 6.875,-3.6875 6.0625,-6.5 3.375,-5.5 3.25,-6 0.875,-2.6875 -0.375,-2.5625 -0.375,-2.1875 -2.125,-3.3125 -1.125,-1.0625 -1.375,2.5625 -4.9375,4.75 -4.75,4.1875 -3.125,2.6875 -3.25,1.3125 -2.6875,1.0625 -2.0625,0.375 -1.5,0.5 z"
         style="fill:#cb7715;fill-opacity:1;stroke:none" />
      <path
         inkscape:connector-curvature="0"
         id="path4378"
         d="m 174.74376,540.85882 0.39775,2.12132 1.28163,2.51906 0.70711,2.3423 1.10485,1.90034 2.03293,4.06587 0.57453,-1.98874 -0.30936,-3.22617 0.0442,-4.5962 -0.17677,-1.94454 z"
         style="fill:#cb7715;fill-opacity:1;stroke:none" />
      <path
         inkscape:connector-curvature="0"
         id="path4386"
         d="m 180.83273,556.01866 16.125,0.1875 1.36333,-18.19764 -6.18719,5.96621 -3.57972,-0.86178 c 0,0 -6.54074,1.21534 -6.58494,1.32582 -0.0442,0.11049 -1.01646,2.01084 -1.01646,2.01084 z"
         style="fill:#ffa334;fill-opacity:1;stroke:none" />
      <path
         sodipodi:nodetypes="cccc"
         inkscape:connector-curvature="0"
         id="path4380"
         d="m 180.94508,547.40898 c 0.68204,-3.88385 6.63659,-3.30059 8.63411,-3.63836 l -8.76923,-1.18211 z"
         style="fill:#cb7715;fill-opacity:1;stroke:none" />
      <path
         sodipodi:nodetypes="ccccc"
         inkscape:connector-curvature="0"
         id="path4382"
         d="m 191.1398,543.88612 0.81759,0.53033 6.49655,-5.78944 -0.44194,-0.61872 z"
         style="fill:#cb7715;fill-opacity:1;stroke:none" />
      <path
         sodipodi:nodetypes="csccc"
         inkscape:connector-curvature="0"
         id="path4384"
         d="m 197.9899,538.21406 c 0,0.22362 -1.81196,18.06852 -1.63519,18.06852 0.17678,0 6.56288,0.125 6.56288,0.125 l -2.67639,-19.74369 z"
         style="fill:#cb7715;fill-opacity:1;stroke:none" />
      <path
         sodipodi:nodetypes="cccccccccc"
         inkscape:connector-curvature="0"
         id="path4388"
         d="m 201.4375,542.17468 c 3.04023,-3.69705 5.09114,-7.81808 9.1875,-11.0625 2.11874,-0.86248 3.89174,-1.03348 5.6875,-1.25 2.95096,-0.31628 4.77318,0.3833 6.0625,1.5625 1.16165,1.16377 2.10852,2.64972 2.9375,4.3125 l -4.4375,6.8125 -5.375,4.5 -5.9375,2.9375 -7.5,2.25 z"
         style="fill:#ffa334;fill-opacity:1;stroke:none" />
      <g
         id="g3939">
        <path
           style="fill:none;stroke:#000000;stroke-width:1.8902936;stroke-linecap:butt;stroke-linejoin:miter;stroke-miterlimit:4;stroke-opacity:1;stroke-dasharray:none"
           d="m 172.32143,517.54075 -8.75,13.92857 c 6.67685,10.67948 17.1089,11.26685 27.5,11.96429 l 13.03571,-10.35714 c -1.35858,-4.57331 0.84062,-8.69038 0.44643,-12.58929 l -5.625,-3.83928 c -4.38486,2.15957 -9.72621,1.60905 -15.53571,-0.26786 -3.57761,-2.09608 -7.25585,-1.97844 -11.07143,1.16071 z"
           id="path3048"
           inkscape:connector-curvature="0"
           sodipodi:nodetypes="cccccccc" />
        <path
           style="fill:none;stroke:#000000;stroke-width:1.8902936;stroke-linecap:butt;stroke-linejoin:miter;stroke-miterlimit:4;stroke-opacity:1;stroke-dasharray:none"
           d="m 178.41819,501.63964 c 2.38577,-3.02147 5.44293,-4.42838 10.85914,-3.91434 7.61503,0.64953 10.23382,5.04625 12.56378,9.65958 -0.31976,3.27671 -0.0281,6.70628 -2.90419,9.34391"
           id="path3054"
           inkscape:connector-curvature="0"
           sodipodi:nodetypes="cccc" />
        <path
           style="fill:none;stroke:#000000;stroke-width:2.26835227;stroke-linecap:butt;stroke-linejoin:miter;stroke-miterlimit:4;stroke-opacity:1;stroke-dasharray:none"
           d="m 179.45861,501.18109 c -1.72214,-0.42808 -3.93641,-2.38141 -6.75409,2.66826 -1.1024,2.48047 -1.52874,4.96093 -2.25809,7.4414 -0.006,1.45833 -0.26151,2.91667 0.35714,4.375 0,0 2.23214,2.23215 1.875,1.875"
           id="path3056"
           inkscape:connector-curvature="0"
           sodipodi:nodetypes="ccccc" />
        <path
           style="fill:none;stroke:#000000;stroke-width:1.89029363;stroke-linecap:butt;stroke-linejoin:miter;stroke-opacity:1;stroke-miterlimit:4;stroke-dasharray:none"
           d="m 175.89281,534.53273 c 6.89941,0.54699 11.34789,-1.08505 13.38452,-4.86136"
           id="path3058"
           inkscape:connector-curvature="0"
           sodipodi:nodetypes="cc" />
        <path
           style="fill:none;stroke:#000000;stroke-width:1.8902936;stroke-linecap:butt;stroke-linejoin:miter;stroke-miterlimit:4;stroke-opacity:1;stroke-dasharray:none"
           d="m 187.45794,527.67783 4.03319,3.01713"
           id="path3064"
           inkscape:connector-curvature="0"
           sodipodi:nodetypes="cc" />
        <path
           style="fill:none;stroke:#000000;stroke-width:1.89029363;stroke-linecap:butt;stroke-linejoin:miter;stroke-opacity:1;stroke-miterlimit:4;stroke-dasharray:none"
           d="m 182.56613,534.54536 c 0.30566,1.14173 -1.10938,2.41887 -2.4433,3.39664 l 4.35628,0 c 3.69522,-1.83101 3.16165,-4.64797 4.05639,-7.18155"
           id="path3066"
           inkscape:connector-curvature="0"
           sodipodi:nodetypes="cccc" />
        <path
           style="fill:none;stroke:#000000;stroke-width:1.8902936;stroke-linecap:butt;stroke-linejoin:miter;stroke-miterlimit:4;stroke-opacity:1;stroke-dasharray:none"
           d="m 192.11839,497.97784 -15.08916,-10.92228 -15.08915,6.37659 11.74302,9.02824"
           id="path3068"
           inkscape:connector-curvature="0" />
        <path
           style="fill:none;stroke:#000000;stroke-width:1.8902936;stroke-linecap:butt;stroke-linejoin:miter;stroke-miterlimit:4;stroke-opacity:1;stroke-dasharray:none"
           d="m 165.91756,491.98006 8.08122,5.80837 10.796,-4.86136"
           id="path3070"
           inkscape:connector-curvature="0" />
        <path
           style="fill:none;stroke:#000000;stroke-width:1.89029363;stroke-linecap:butt;stroke-linejoin:miter;stroke-opacity:1;stroke-miterlimit:4;stroke-dasharray:none"
           d="m 192.11839,498.23038 c 4.25687,-4.86847 7.9734,-4.5136 11.74302,-4.67196 6.67052,0.45921 10.767,3.357 14.26841,6.81853 1.30887,4.96387 -0.73713,9.01278 -1.13643,13.51079 -0.0378,3.11685 -1.67501,4.27103 -3.97747,4.60882 -2.89897,0.55965 -4.33154,1.66919 -5.93465,2.71479 l -2.71479,-0.75762"
           id="path3072"
           inkscape:connector-curvature="0"
           sodipodi:nodetypes="ccccccc" />
        <path
           style="fill:none;stroke:#000000;stroke-width:1.8902936;stroke-linecap:butt;stroke-linejoin:miter;stroke-miterlimit:4;stroke-opacity:1;stroke-dasharray:none"
           d="m 177.23214,486.91575 c 8.01356,-2.20506 15.88504,-2.13684 23.66072,-0.53571 10.74615,2.1444 15.77883,9.76063 17.14789,13.81499"
           id="path3846"
           inkscape:connector-curvature="0"
           sodipodi:nodetypes="ccc" />
        <path
           sodipodi:nodetypes="cc"
           style="fill:none;stroke:#000000;stroke-width:1.60000002;stroke-linecap:butt;stroke-linejoin:miter;stroke-miterlimit:4;stroke-opacity:1;stroke-dasharray:none;marker-start:none;marker-end:none"
           d="M 193.85935,485.16026 164.40233,459.78144"
           id="path3848"
           inkscape:connector-curvature="0" />
        <path
           style="fill:none;stroke:#000000;stroke-width:1.89029363;stroke-linecap:butt;stroke-linejoin:miter;stroke-opacity:1;stroke-miterlimit:4;stroke-dasharray:none"
           d="m 180.53571,542.18361 0,13.83929"
           id="path3850"
           inkscape:connector-curvature="0" />
        <path
           style="fill:none;stroke:#000000;stroke-width:1.89029363;stroke-linecap:butt;stroke-linejoin:miter;stroke-opacity:1;stroke-miterlimit:4;stroke-dasharray:none"
           d="m 198.75,537.36218 -1.07143,18.92857"
           id="path3852"
           inkscape:connector-curvature="0" />
        <path
           style="fill:none;stroke:#000000;stroke-width:1.89029363;stroke-linecap:butt;stroke-linejoin:miter;stroke-opacity:1;stroke-miterlimit:4;stroke-dasharray:none"
           d="m 171.07143,556.29075 c 0,-0.44643 5.89285,-8.70535 5.89285,-8.70535"
           id="path3854"
           inkscape:connector-curvature="0"
           sodipodi:nodetypes="cc" />
        <path
           style="fill:none;stroke:#000000;stroke-width:1.89029363;stroke-linecap:butt;stroke-linejoin:miter;stroke-opacity:1;stroke-miterlimit:4;stroke-dasharray:none"
           d="m 174.55357,540.79968 c 1.01697,5.76373 5.84644,11.4771 5.98214,15.3125"
           id="path3856"
           inkscape:connector-curvature="0"
           sodipodi:nodetypes="cc" />
        <path
           style="fill:none;stroke:#000000;stroke-width:1px;stroke-linecap:butt;stroke-linejoin:miter;stroke-opacity:1;marker-mid:none"
           d="m 206.33929,498.70147 c 4.1899,1.43387 7.69279,3.59091 7.41071,9.73214"
           id="path3877"
           inkscape:connector-curvature="0"
           sodipodi:nodetypes="cc" />
        <path
           style="fill:none;stroke:#000000;stroke-width:1.89029363;stroke-linecap:butt;stroke-linejoin:miter;stroke-opacity:1;stroke-miterlimit:4;stroke-dasharray:none"
           d="m 204.10714,532.98718 c 8.01488,-0.57998 11.15754,-5.42316 15.625,-9.10714 3.05875,-2.59938 5.71528,-5.80207 8.30357,-9.10714 -3.18452,-3.54167 -3.56458,-9.3779 -9.55357,-10.625"
           id="path3879"
           inkscape:connector-curvature="0"
           sodipodi:nodetypes="cccc" />
        <path
           style="fill:none;stroke:#000000;stroke-width:1px;stroke-linecap:butt;stroke-linejoin:miter;stroke-opacity:1"
           d="m 213.96294,518.24402 5.4927,5.80838"
           id="path3885"
           inkscape:connector-curvature="0" />
        <path
           style="fill:none;stroke:#000000;stroke-width:1.89029363;stroke-linecap:butt;stroke-linejoin:miter;stroke-opacity:1;stroke-miterlimit:4;stroke-dasharray:none"
           d="m 202.41071,551.91575 c 7.2609,-1.10321 14.78386,-5.68478 18.57143,-9.73214 3.78725,-4.67262 5.96622,-9.34524 8.66072,-14.01786 1.89607,-4.65212 0.41045,-8.49908 -2.67857,-11.96428"
           id="path3887"
           inkscape:connector-curvature="0"
           sodipodi:nodetypes="cccc" />
        <path
           style="fill:none;stroke:#000000;stroke-width:1px;stroke-linecap:butt;stroke-linejoin:miter;stroke-opacity:1"
           d="m 200.44643,536.11218 1.78571,19.73214"
           id="path3889"
           inkscape:connector-curvature="0" />
        <path
           style="fill:none;stroke:#000000;stroke-width:1.89029363;stroke-linecap:butt;stroke-linejoin:miter;stroke-opacity:1;stroke-miterlimit:4;stroke-dasharray:none"
           d="m 223.8674,538.82206 c -1.24116,7.46328 2.24536,14.95463 9.73037,16.98701"
           id="path3891"
           inkscape:connector-curvature="0"
           sodipodi:nodetypes="cc" />
        <path
           style="fill:none;stroke:#000000;stroke-width:1.89029363;stroke-linecap:butt;stroke-linejoin:miter;stroke-opacity:1;stroke-miterlimit:4;stroke-dasharray:none"
           d="m 224.34856,537.50006 c -1.28367,7.54499 4.53047,15.55505 9.62802,18.56155 l 10.32881,0"
           id="path3893"
           inkscape:connector-curvature="0"
           sodipodi:nodetypes="cc" />
        <path
           sodipodi:nodetypes="ccc"
           style="fill:none;stroke:#000000;stroke-width:1.89029363;stroke-linecap:butt;stroke-linejoin:miter;stroke-opacity:1;stroke-miterlimit:4;stroke-dasharray:none"
           d="m 230.47279,523.77021 c 0.54317,2.10848 1.76108,3.41387 3.81947,4.00713 l 9.72271,1.51523"
           id="path3897"
           inkscape:connector-curvature="0" />
        <path
           style="fill:none;stroke:#000000;stroke-width:1.89029363;stroke-linecap:butt;stroke-linejoin:miter;stroke-opacity:1;stroke-miterlimit:4;stroke-dasharray:none"
           d="m 228.89836,529.4603 c 2.07155,-1.62282 3.76429,-1.64471 5.83584,-1.61983"
           id="path3899"
           inkscape:connector-curvature="0"
           sodipodi:nodetypes="cc" />
        <path
           sodipodi:type="arc"
           style="color:#000000;fill:none;stroke:#000000;stroke-width:3;stroke-linecap:round;stroke-miterlimit:4;stroke-opacity:1;stroke-dasharray:none;stroke-dashoffset:1.21700001;marker:none;visibility:visible;display:inline;overflow:visible;enable-background:accumulate"
           id="path3901"
           sodipodi:cx="162.603"
           sodipodi:cy="459.81302"
           sodipodi:rx="0.91545075"
           sodipodi:ry="0.91545075"
           d="m 163.51845,459.81302 a 0.91545075,0.91545075 0 1 1 -1.8309,0 0.91545075,0.91545075 0 1 1 1.8309,0 z"
           transform="matrix(0.84317329,0,0,0.84317329,27.078857,71.669024)" />
        <path
           sodipodi:type="arc"
           style="color:#000000;fill:none;stroke:#000000;stroke-width:3;stroke-linecap:round;stroke-miterlimit:4;stroke-opacity:1;stroke-dasharray:none;stroke-dashoffset:1.21700001;marker:none;visibility:visible;display:inline;overflow:visible;enable-background:accumulate"
           id="path3901-2"
           sodipodi:cx="162.603"
           sodipodi:cy="459.81302"
           sodipodi:rx="0.91545075"
           sodipodi:ry="0.91545075"
           d="m 163.51845,459.81302 a 0.91545075,0.91545075 0 1 1 -1.8309,0 0.91545075,0.91545075 0 1 1 1.8309,0 z"
           transform="matrix(0.73312262,0,0,1.9179463,63.520273,-373.01488)" />
        <path
           sodipodi:type="arc"
           style="color:#000000;fill:none;stroke:#000000;stroke-width:3;stroke-linecap:round;stroke-miterlimit:4;stroke-opacity:1;stroke-dasharray:none;stroke-dashoffset:1.21700001;marker:none;visibility:visible;display:inline;overflow:visible;enable-background:accumulate"
           id="path3901-2-3"
           sodipodi:cx="162.603"
           sodipodi:cy="459.81302"
           sodipodi:rx="0.91545075"
           sodipodi:ry="0.91545075"
           d="m 163.51845,459.81302 a 0.91545075,0.91545075 0 1 1 -1.8309,0 0.91545075,0.91545075 0 1 1 1.8309,0 z"
           transform="matrix(0.58563217,0,0,1.5320917,79.863736,-194.88136)" />
        <path
           style="fill:none;stroke:#000000;stroke-width:1px;stroke-linecap:butt;stroke-linejoin:miter;stroke-opacity:1;marker-mid:none"
           d="m 206.33929,498.70147 c 4.91165,0.71212 8.64773,2.63597 7.41071,9.73214"
           id="path3877-4"
           inkscape:connector-curvature="0"
           sodipodi:nodetypes="cc" />
        <path
           style="fill:none;stroke:#000000;stroke-width:1px;stroke-linecap:butt;stroke-linejoin:miter;stroke-opacity:1"
           d="m 214.32008,517.79759 5.4927,5.80838"
           id="path3885-2"
           inkscape:connector-curvature="0" />
        <path
           sodipodi:nodetypes="cc"
           inkscape:connector-curvature="0"
           id="path4214"
           d="m 199.44199,516.28685 6.50286,4.54569"
           style="fill:none;stroke:#000000;stroke-width:1px;stroke-linecap:butt;stroke-linejoin:miter;stroke-opacity:1" />
        <path
           sodipodi:nodetypes="cc"
           style="fill:none;stroke:#000000;stroke-width:1.89029363;stroke-linecap:butt;stroke-linejoin:miter;stroke-opacity:1;stroke-miterlimit:4;stroke-dasharray:none"
           d="M 200.71429,535.95796 202.5,555.88897"
           id="path3889-7"
           inkscape:connector-curvature="0" />
        <path
           sodipodi:nodetypes="ccc"
           inkscape:connector-curvature="0"
           id="path4403"
           d="m 228.212,517.50451 -0.1877,2.32221 1.63132,-0.43921"
           style="fill:none;stroke:#000000;stroke-width:1.00387645px;stroke-linecap:butt;stroke-linejoin:miter;stroke-opacity:1" />
        <path
           sodipodi:nodetypes="cc"
           inkscape:connector-curvature="0"
           id="path5767"
           d="m 193.40625,484.39343 1.375,1.11719"
           style="fill:none;stroke:#000000;stroke-width:1px;stroke-linecap:butt;stroke-linejoin:miter;stroke-opacity:1" />
      </g>
    </g>
  </g>
</svg>
