<?xml version="1.0" encoding="UTF-8" standalone="no"?>
<!-- Created with Inkscape (http://www.inkscape.org/) -->

<svg
   xmlns:dc="http://purl.org/dc/elements/1.1/"
   xmlns:cc="http://creativecommons.org/ns#"
   xmlns:rdf="http://www.w3.org/1999/02/22-rdf-syntax-ns#"
   xmlns:svg="http://www.w3.org/2000/svg"
   xmlns="http://www.w3.org/2000/svg"
   xmlns:sodipodi="http://sodipodi.sourceforge.net/DTD/sodipodi-0.dtd"
   xmlns:inkscape="http://www.inkscape.org/namespaces/inkscape"
   id="svg3747"
   height="90"
   width="90"
   version="1.1"
   inkscape:version="0.48.4 r9939"
   sodipodi:docname="go-last.svg">
  <defs
     id="defs10" />
  <sodipodi:namedview
     pagecolor="#ffffff"
     bordercolor="#666666"
     borderopacity="1"
     objecttolerance="10"
     gridtolerance="10"
     guidetolerance="10"
     inkscape:pageopacity="0"
     inkscape:pageshadow="2"
     inkscape:window-width="640"
     inkscape:window-height="480"
     id="namedview8"
     showgrid="false"
     inkscape:zoom="2.6222222"
     inkscape:cx="45"
     inkscape:cy="45"
     inkscape:window-x="0"
     inkscape:window-y="0"
     inkscape:window-maximized="0"
     inkscape:current-layer="svg3747" />
  <metadata
     id="metadata3752">
    <rdf:RDF>
      <cc:Work
         rdf:about="">
        <dc:format>image/svg+xml</dc:format>
        <dc:type
           rdf:resource="http://purl.org/dc/dcmitype/StillImage" />
        <dc:title></dc:title>
      </cc:Work>
    </rdf:RDF>
  </metadata>
  <g
     id="layer1"
     transform="matrix(-1,0,0,1,215.69491,-962.36)">
    <g
       id="g4171"
       transform="translate(-198,611)">
      <path
         id="path4984"
         style="color:#000000;fill:#808080"
         d="m 363.6,357.36 v 0.0625 c 3.4937,1.3211 25.177,34.504 25.177,38.938 0,4.433 -21.684,37.616 -25.177,38.938 v 0.0625 h 21.381 c 2.6274,0.30894 25.421,-34.457 25.421,-39 0,-4.5432 -22.794,-39.309 -25.421,-39 h -21.38 z"
         inkscape:connector-curvature="0" />
      <rect
         id="rect2986"
         style="color:#000000;fill:none"
         height="90"
         width="90"
         y="351.35999"
         x="342" />
    </g>
  </g>
  <g
     transform="matrix(-1,0,0,1,253.44915,-962.36)"
     id="g2987">
    <g
       transform="translate(-198,611)"
       id="g2989">
      <path
         inkscape:connector-curvature="0"
         d="m 363.6,357.36 v 0.0625 c 3.4937,1.3211 25.177,34.504 25.177,38.938 0,4.433 -21.684,37.616 -25.177,38.938 v 0.0625 h 21.381 c 2.6274,0.30894 25.421,-34.457 25.421,-39 0,-4.5432 -22.794,-39.309 -25.421,-39 h -21.38 z"
         style="color:#000000;fill:#808080"
         id="path2991" />
      <rect
         x="342"
         y="351.35999"
         width="90"
         height="90"
         style="color:#000000;fill:none"
         id="rect2993" />
    </g>
  </g>
</svg>
