<?xml version="1.0" encoding="UTF-8" standalone="no"?>
<!-- Created with Inkscape (http://www.inkscape.org/) -->

<svg
   xmlns:dc="http://purl.org/dc/elements/1.1/"
   xmlns:cc="http://creativecommons.org/ns#"
   xmlns:rdf="http://www.w3.org/1999/02/22-rdf-syntax-ns#"
   xmlns:svg="http://www.w3.org/2000/svg"
   xmlns="http://www.w3.org/2000/svg"
   xmlns:xlink="http://www.w3.org/1999/xlink"
   xmlns:sodipodi="http://sodipodi.sourceforge.net/DTD/sodipodi-0.dtd"
   xmlns:inkscape="http://www.inkscape.org/namespaces/inkscape"
   width="256"
   height="256"
   id="svg1901"
   sodipodi:version="0.32"
   inkscape:version="0.48.4 r9939"
   sodipodi:docname="twokinds.svg"
   version="1.1"
   inkscape:export-filename="/home/theo/ComicshelfWorkspace/ComicShelf/graphics/freefall.png"
   inkscape:export-xdpi="90"
   inkscape:export-ydpi="90">
  <defs
     id="defs1903">
    <linearGradient
       id="linearGradient6783">
      <stop
         id="stop6785"
         offset="0"
         style="stop-color:#68b8e4;stop-opacity:1;" />
      <stop
         id="stop6787"
         offset="1"
         style="stop-color:#ff9310;stop-opacity:1;" />
    </linearGradient>
    <linearGradient
       id="linearGradient6763">
      <stop
         style="stop-color:#1c709e;stop-opacity:1;"
         offset="0"
         id="stop6765" />
      <stop
         style="stop-color:#ce6a00;stop-opacity:1;"
         offset="1"
         id="stop6767" />
    </linearGradient>
    <linearGradient
       id="linearGradient6385">
      <stop
         style="stop-color:#000000;stop-opacity:1;"
         offset="0"
         id="stop6387" />
      <stop
         style="stop-color:#000000;stop-opacity:1;"
         offset="1"
         id="stop6389" />
    </linearGradient>
    <marker
       inkscape:stockid="Arrow1Lstart"
       orient="auto"
       refY="0"
       refX="0"
       id="Arrow1Lstart"
       style="overflow:visible">
      <path
         id="path4409"
         d="M 0,0 5,-5 -12.5,0 5,5 0,0 z"
         style="fill-rule:evenodd;stroke:#000000;stroke-width:1pt"
         transform="matrix(0.8,0,0,0.8,10,0)"
         inkscape:connector-curvature="0" />
    </marker>
    <marker
       inkscape:stockid="Arrow2Lend"
       orient="auto"
       refY="0"
       refX="0"
       id="Arrow2Lend"
       style="overflow:visible">
      <path
         id="path4430"
         style="fill-rule:evenodd;stroke-width:0.625;stroke-linejoin:round"
         d="M 8.7185878,4.0337352 -2.2072895,0.01601326 8.7185884,-4.0017078 c -1.7454984,2.3720609 -1.7354408,5.6174519 -6e-7,8.035443 z"
         transform="matrix(-1.1,0,0,-1.1,-1.1,0)"
         inkscape:connector-curvature="0" />
    </marker>
    <inkscape:path-effect
       effect="skeletal"
       id="path-effect2995"
       is_visible="true"
       pattern="M 0,0 0,10 10,5 z"
       copytype="single_stretched"
       prop_scale="1"
       scale_y_rel="false"
       spacing="0"
       normal_offset="0"
       tang_offset="0"
       prop_units="false"
       vertical_pattern="false"
       fuse_tolerance="0" />
    <linearGradient
       inkscape:collect="always"
       xlink:href="#linearGradient6385"
       id="linearGradient6391"
       x1="289.96933"
       y1="559.16302"
       x2="289.96933"
       y2="297.72839"
       gradientUnits="userSpaceOnUse" />
    <linearGradient
       inkscape:collect="always"
       xlink:href="#linearGradient6385"
       id="linearGradient6629"
       gradientUnits="userSpaceOnUse"
       x1="289.96933"
       y1="559.16302"
       x2="289.96933"
       y2="297.72839" />
    <linearGradient
       inkscape:collect="always"
       xlink:href="#linearGradient6385"
       id="linearGradient6645"
       gradientUnits="userSpaceOnUse"
       x1="289.96933"
       y1="559.16302"
       x2="289.96933"
       y2="297.72839" />
    <linearGradient
       inkscape:collect="always"
       xlink:href="#linearGradient6385"
       id="linearGradient6649"
       gradientUnits="userSpaceOnUse"
       x1="289.96933"
       y1="559.16302"
       x2="289.96933"
       y2="297.72839" />
    <linearGradient
       inkscape:collect="always"
       xlink:href="#linearGradient6385"
       id="linearGradient6653"
       gradientUnits="userSpaceOnUse"
       x1="289.96933"
       y1="559.16302"
       x2="289.96933"
       y2="297.72839" />
    <linearGradient
       inkscape:collect="always"
       xlink:href="#linearGradient6763"
       id="linearGradient6769"
       x1="-152.05678"
       y1="263.43518"
       x2="-152.05678"
       y2="-4.1202569"
       gradientUnits="userSpaceOnUse" />
    <linearGradient
       inkscape:collect="always"
       xlink:href="#linearGradient6783"
       id="linearGradient6781"
       x1="-148.4375"
       y1="262.64062"
       x2="-148.4375"
       y2="-1.5616776"
       gradientUnits="userSpaceOnUse" />
  </defs>
  <sodipodi:namedview
     id="base"
     pagecolor="#ffffff"
     bordercolor="#666666"
     borderopacity="1.0"
     inkscape:pageopacity="0.0"
     inkscape:pageshadow="2"
     inkscape:zoom="1.28"
     inkscape:cx="66.647906"
     inkscape:cy="126.03712"
     inkscape:document-units="px"
     inkscape:current-layer="layer1"
     inkscape:window-width="1360"
     inkscape:window-height="706"
     inkscape:window-x="0"
     inkscape:window-y="27"
     showgrid="false"
     inkscape:window-maximized="1"
     fit-margin-top="0"
     fit-margin-left="0"
     fit-margin-right="0"
     fit-margin-bottom="0" />
  <metadata
     id="metadata1906">
    <rdf:RDF>
      <cc:Work
         rdf:about="">
        <dc:format>image/svg+xml</dc:format>
        <dc:type
           rdf:resource="http://purl.org/dc/dcmitype/StillImage" />
        <dc:title></dc:title>
      </cc:Work>
    </rdf:RDF>
  </metadata>
  <g
     inkscape:label="Taso 1"
     inkscape:groupmode="layer"
     id="layer1"
     transform="translate(-160.19337,-300.18704)">
    <g
       id="g7006"
       transform="matrix(0.97403901,0,0,0.97403901,282.47513,9.4137379)">
      <path
         transform="translate(160.19337,300.18704)"
         inkscape:connector-curvature="0"
         id="path6773"
         d="m -234.375,163.03125 -25,-32.8125 -6.25,-35.937501 7.8125,-28.125 16.40625,-6.25 17.96875,-3.90625 12.5,-39.0625 25.78125,-4.6875 23.4375,3.90625 11.71875,5.46875 22.65625,-12.4999999 32.03125,8.5937499 6.25,28.125 1.5625,10.15625 24.21875,2.34375 20.3125,17.1875 0,12.5 -3.90625,34.375001 -11.71875,28.125 -14.84375,10.15625 16.40625,25 -7.8125,46.09375 -24.21875,21.875 -27.34375,-1.5625 -24.21875,-11.71875 -18.75,-10.9375 -12.5,12.5 -21.09375,5.46875 -14.0625,1.5625 -21.09375,-2.34375 -6.25,-10.15625 -13.28125,-17.96875 1.5625,-23.4375 -0.78125,-23.4375 z"
         style="fill:url(#linearGradient6781);fill-opacity:1;stroke:none" />
      <path
         sodipodi:nodetypes="cccccc"
         transform="translate(160.19337,300.18704)"
         inkscape:connector-curvature="0"
         id="path6789"
         d="m -264.06019,95.243692 c 15.28382,-19.258666 30.56764,-23.809541 45.85146,-28.726213 l -22.09709,-12.153398 -16.02039,8.838835 -6.0767,17.125242 z"
         style="fill:#ffffff;fill-opacity:1;stroke:none" />
      <path
         sodipodi:nodetypes="cccccc"
         inkscape:connector-curvature="0"
         id="path6789-0"
         d="m -53.319736,357.31326 c 18.58843,-23.42269 37.17686,-28.95755 55.7652896,-34.93728 l -26.8748396,-14.78116 -19.484258,10.74994 -7.390581,20.82799 z"
         style="fill:#ffffff;fill-opacity:1;stroke:none" />
      <path
         sodipodi:nodetypes="cccccc"
         inkscape:connector-curvature="0"
         id="path6789-6"
         d="m 11.314244,351.23656 c 15.28382,-19.25866 30.56764,-23.80954 45.85146,-28.72621 l -22.09709,-12.1534 -16.02039,8.83884 -6.0767,17.12524 z"
         style="fill:#ffffff;fill-opacity:1;stroke:none" />
      <path
         sodipodi:nodetypes="cccccc"
         inkscape:connector-curvature="0"
         id="path6789-9"
         d="M 59.927836,395.98316 C 75.211655,376.7245 90.495475,372.17362 105.7793,367.25695 l -22.097095,-12.1534 -16.02039,8.83884 -6.076699,17.12524 z"
         style="fill:#ffffff;fill-opacity:1;stroke:none" />
      <path
         sodipodi:nodetypes="csscccccc"
         transform="translate(160.19337,300.18704)"
         inkscape:connector-curvature="0"
         id="path6823"
         d="m -245.27767,210.14854 c 0,0 20.43981,-39.22232 32.04078,-43.64174 11.60097,-4.41942 40.32718,-19.33495 45.29903,-27.62136 4.97184,-8.28641 22.09709,-39.222331 22.09709,-39.222331 l -28.17379,4.419421 -32.5932,22.09708 -20.43981,27.06894 -23.20194,30.38349 z"
         style="fill:#ffffff;fill-opacity:1;stroke:none" />
      <path
         transform="translate(160.19337,300.18704)"
         inkscape:connector-curvature="0"
         id="path6682"
         d="m -218.6987,258.53758 c -14.53641,-2.92164 -25.79542,-10.7606 -32.57542,-22.68028 -2.58466,-4.544 -5.12222,-12.40218 -6.1003,-18.89108 -1.60584,-10.65377 -0.84602,-28.72472 1.61585,-38.4297 1.63618,-6.44999 3.36684,-9.91823 7.20964,-14.44809 l 2.99168,-3.52657 -4.24839,-2.49632 c -8.22453,-4.83267 -13.66844,-10.9185 -18.38728,-20.55544 -4.83852,-9.88137 -7.05313,-24.2429 -6.38666,-41.416873 0.55262,-14.240153 2.40849,-23.948845 5.70562,-29.848055 2.77425,-4.963668 8.77024,-10.204877 15.3161,-13.388071 5.88198,-2.860363 9.03428,-3.53792 17.87203,-3.841425 l 8.42451,-0.289313 0.004,-1.452005 c 0.005,-1.823637 1.95508,-12.915017 2.75219,-15.650319 4.98971,-17.12235 22.2017,-29.9915341 41.71455,-31.18942926 11.01647,-0.67630197 19.56899,3.52262326 25.77907,12.65643426 1.18782,1.747051 2.46114,3.1696 2.82962,3.161221 0.36847,-0.0084 1.66432,-1.521626 2.87966,-3.36277 6.75905,-10.2394389 18.10665,-14.5705663 31.0445,-11.8490054 14.02441,2.950126 24.368826,9.4069894 31.032634,19.3702044 4.205202,6.287307 6.355216,13.168186 8.069618,25.82598 l 0.35541,2.624029 6.457166,0.0039 c 10.562336,0.0063 19.514745,2.81126 26.896978,8.427238 8.022635,6.10316 11.735371,14.533315 12.971338,29.452793 0.703538,8.49248 0.698655,26.471556 -0.0086,31.445706 -1.234282,8.68144 -4.314826,17.67365 -8.360786,24.40538 -3.079328,5.12345 -10.238199,12.26594 -15.303846,15.26885 -2.469449,1.46389 -4.489907,2.79629 -4.489907,2.96089 0,0.16461 1.180813,1.59341 2.624029,3.17512 1.443216,1.58172 3.292317,4.10795 4.109114,5.61386 4.56949,8.42465 7.026741,28.11593 5.390987,43.20082 -1.549221,14.28687 -5.432115,23.63599 -13.209754,31.80606 -5.959237,6.25992 -13.199027,10.50547 -22.450519,13.16543 -3.817918,1.09771 -5.566168,1.24994 -14.028912,1.22152 -7.97262,-0.0268 -10.58753,-0.24795 -14.91553,-1.26166 -9.16226,-2.14601 -21.75793,-6.48473 -27.98211,-9.63876 -2.45364,-1.24335 -6.12998,-4.60513 -9.69664,-8.86695 l -1.32919,-1.58827 -3.99262,4.42175 c -4.50186,4.98574 -6.55955,6.191 -17.64152,10.33331 -7.79551,2.91386 -17.26111,5.46235 -23.50493,6.3284 -5.49628,0.76237 -15.14261,0.66384 -19.43308,-0.19849 l 1e-5,10e-6 z m 20.16359,-15.30152 c 8.02672,-1.29574 22.4606,-6.22529 26.57356,-9.07558 4.03488,-2.79617 6.38697,-6.89255 8.19107,-14.2655 0.66129,-2.70258 1.66202,-5.80998 2.22384,-6.90534 2.04587,-3.98876 5.20212,-5.78015 8.77827,-4.98225 3.83474,0.8556 5.98192,4.18792 8.48581,13.16956 2.94802,10.57476 6.06961,13.42765 19.91684,18.20237 9.89271,3.41115 16.15766,4.628 24.16265,4.69311 11.598811,0.0943 17.377432,-2.08608 24.637275,-9.29629 6.888656,-6.84158 8.97424,-12.15274 10.154622,-25.85988 0.98384,-11.42472 -0.917763,-27.48058 -3.819912,-32.25277 -0.691385,-1.1369 -5.094677,-4.29763 -13.377278,-9.60234 -30.949937,-19.82237 -39.947337,-27.72958 -57.555247,-50.58143 -4.03868,-5.24147 -7.42794,-9.10455 -8.40179,-9.57639 -2.41236,-1.16879 -7.77948,-0.99713 -10.78939,0.34508 -2.14981,0.95867 -3.68758,2.605 -10.2807,11.00644 -16.67688,21.25093 -26.93714,30.12759 -56.85042,49.18409 -6.01358,3.831 -11.37409,7.49268 -11.91225,8.13706 -1.11096,1.33024 -2.85042,6.33777 -3.76516,10.83907 -1.01799,5.00938 -1.34265,18.4584 -0.60009,24.85922 1.39112,11.99139 3.4388,17.07146 9.31463,23.10855 8.59105,8.82681 18.89368,11.4393 34.91367,8.85322 z M -63.836159,143.6502 c 1.909901,-0.98764 6.1188,-5.46711 8.130707,-8.65338 2.250549,-3.56421 3.930469,-8.00725 5.349367,-14.14796 1.124466,-4.86646 1.248519,-6.77624 1.213274,-18.67893 -0.0571,-19.288132 -1.276256,-26.145421 -5.532403,-31.117774 -4.613552,-5.389899 -17.825743,-9.04252 -23.043881,-6.370673 -11.093014,5.679962 -19.82433,24.829629 -20.619212,45.222427 l -0.279926,7.18155 2.24228,3.96453 c 5.163001,9.1286 16.653585,18.88735 26.273707,22.31378 3.443372,1.22645 4.366688,1.26865 6.266087,0.28643 l 0,0 z m -173.076031,-0.83605 c 8.71996,-3.06482 20.84682,-13.92943 25.54463,-22.88575 1.34605,-2.56622 1.48612,-3.38066 1.43911,-8.36721 -0.0991,-10.5163 -2.89935,-22.410757 -7.47807,-31.764565 -2.36016,-4.821529 -3.55997,-6.52311 -7.10912,-10.082155 -2.34837,-2.35492 -5.16182,-4.654398 -6.25211,-5.109951 -5.43324,-2.27015 -17.08815,0.686987 -22.1737,5.626012 -4.747,4.610231 -6.31326,12.523601 -6.34341,32.049459 -0.014,9.08383 0.19684,12.26801 1.13411,17.12524 2.09716,10.86813 6.00131,18.54616 11.47167,22.56052 3.0431,2.23314 5.27535,2.42705 9.76689,0.8484 l 0,0 z m 62.78626,-54.063432 c 1.91862,-0.950876 5.07543,-3.019915 7.01514,-4.597857 l 3.52674,-2.868986 -0.29071,-22.702602 c -0.28798,-22.487939 -0.30444,-22.748693 -1.74053,-27.576317 -1.81694,-6.107924 -3.21342,-8.916318 -5.77135,-11.606531 -3.13759,-3.299848 -4.70721,-3.923487 -9.74701,-3.872668 -9.89646,0.09979 -20.77328,5.788855 -25.67659,13.430007 -4.14526,6.459823 -5.78963,16.37885 -4.47816,27.012804 0.64895,5.261991 1.16048,6.704345 3.69414,10.416451 0.7834,1.147767 2.91522,5.194252 4.73739,8.992189 3.92703,8.185092 5.21667,10.00276 8.43526,11.888984 7.0652,4.14048 13.92436,4.642195 20.29568,1.484526 l 0,0 z m 56.32645,0.492147 c 5.10113,-1.956786 7.99128,-4.962907 11.09262,-11.537746 1.47418,-3.125257 3.96025,-7.848509 5.52459,-10.496116 3.561317,-6.027434 4.274307,-9.044818 4.285135,-18.134792 0.01492,-12.5413 -1.742632,-17.591012 -8.416185,-24.180702 -5.49465,-5.425593 -12.54122,-8.68223 -20.57761,-9.510129 -8.40337,-0.865705 -13.48251,3.760844 -16.65964,15.175122 -1.75922,6.320257 -2.36327,15.04151 -2.38299,34.405266 l -0.0161,15.826845 3.09142,2.825383 c 3.51456,3.212116 6.9386,5.354594 10.32485,6.460426 3.24433,1.059489 9.843,0.658996 13.73392,-0.833557 l 0,0 z"
         style="color:#000000;fill:url(#linearGradient6769);fill-opacity:1;fill-rule:nonzero;stroke:none;stroke-width:15;marker:none;visibility:visible;display:inline;overflow:visible;enable-background:accumulate" />
    </g>
  </g>
</svg>
