<?xml version="1.0" encoding="UTF-8" standalone="no"?>
<!-- Created with Inkscape (http://www.inkscape.org/) -->

<svg
   xmlns:dc="http://purl.org/dc/elements/1.1/"
   xmlns:cc="http://creativecommons.org/ns#"
   xmlns:rdf="http://www.w3.org/1999/02/22-rdf-syntax-ns#"
   xmlns:svg="http://www.w3.org/2000/svg"
   xmlns="http://www.w3.org/2000/svg"
   xmlns:sodipodi="http://sodipodi.sourceforge.net/DTD/sodipodi-0.dtd"
   xmlns:inkscape="http://www.inkscape.org/namespaces/inkscape"
   width="48"
   height="48"
   id="svg1901"
   sodipodi:version="0.32"
   inkscape:version="0.48.4 r9939"
   sodipodi:docname="Uusi asiakirja 1"
   version="1.1">
  <defs
     id="defs1903" />
  <sodipodi:namedview
     id="base"
     pagecolor="#ffffff"
     bordercolor="#666666"
     borderopacity="1.0"
     inkscape:pageopacity="0.0"
     inkscape:pageshadow="2"
     inkscape:zoom="0.35"
     inkscape:cx="584.74928"
     inkscape:cy="274.65297"
     inkscape:document-units="px"
     inkscape:current-layer="layer1"
     inkscape:window-width="1360"
     inkscape:window-height="702"
     inkscape:window-x="0"
     inkscape:window-y="27"
     showgrid="false"
     inkscape:window-maximized="1" />
  <metadata
     id="metadata1906">
    <rdf:RDF>
      <cc:Work
         rdf:about="">
        <dc:format>image/svg+xml</dc:format>
        <dc:type
           rdf:resource="http://purl.org/dc/dcmitype/StillImage" />
        <dc:title></dc:title>
      </cc:Work>
    </rdf:RDF>
  </metadata>
  <g
     inkscape:label="Taso 1"
     inkscape:groupmode="layer"
     id="layer1"
     transform="translate(0,-1004.3622)">
    <path
       style="fill:#000000"
       d="m 0,1028.3622 0,-24 23.999999,0 24.000001,0 0,24 0,24 -24.000001,0 -23.999999,0 z m 6.0071847,18.375 c 0.7881153,-2.2687 2.4589052,-6.036 3.7128758,-8.3716 1.2539695,-2.3356 2.2685695,-5.3731 2.2546645,-6.75 l -0.0252,-2.5034 -3.1220398,4.875 c -2.90808,4.5409 -5.8274247,6.3989 -5.8274247,3.7088 0,-1.6422 4.5227094,-8.2442 7.0729795,-10.3249 l 2.134065,-1.741 -3.1000354,-0.9839 -2.1530096,-1.5995 -1.86312,-3.0345 c -1.0829702,-1.7638 -0.4951495,-5.3272 0.01935,-7.3772 l 1.9298247,-2.5907 2.5907404,-1.4563 c 1.842375,-1.0357 5.856945,-1.0976 7.691055,-0.047 l 2.543384,1.4563 2.024536,2.6381 c 1.286729,1.6767 0.523215,5.3697 0.01935,7.3772 l -2.099865,2.9871 -1.916265,1.6468 -3.10005,0.9839 2.13408,1.7411 c 1.173735,0.9576 3.140369,3.2601 4.37031,5.1169 l 2.236245,3.3757 2.71569,-3.0007 2.715689,-3.0009 -2.262299,0 -2.2623,0 0.690509,-7.875 0.69051,-7.875 2.376001,-1.875 c 1.306799,-1.0312 3.46797,-1.875 4.802609,-1.875 1.334641,0 3.49581,0.8438 4.80261,1.875 l 2.376,1.875 0.69051,7.875 0.690495,7.875 -2.29128,0 -2.291279,0 3.517394,3.7441 c 4.66842,4.9693 2.589586,6.7737 -2.461904,2.1369 l -3.955621,-3.631 1.063395,4.417 c 0.584851,2.4293 1.9956,6.648 3.134986,9.375 l 2.071619,4.958 3.076531,0 3.076545,0 0,-22.5 0,-22.5 -22.500001,0 -22.4999994,0 0,22.5 0,22.5 1.5371253,0 c 0.8454146,0 2.1819454,-1.8562 2.9700596,-4.125 z M 18,1049.586 c 0,-2.7252 -3.356415,-10.7238 -4.5,-10.7238 -1.143585,0 -4.4999999,7.9986 -4.4999999,10.7238 0,0.7019 2.0249999,1.2762 4.4999999,1.2762 2.475,0 4.5,-0.5743 4.5,-1.2762 z m 9.724695,-3.6819 c 1.139385,-2.7269 2.550134,-6.9456 3.134985,-9.375 l 1.063395,-4.4169 -3.68322,3.375 c -4.900951,4.4908 -6.370921,4.2718 -10.06728,-1.5 l -3.12204,-4.875 -0.0252,2.5034 c -0.0135,1.3769 1.00071,4.4144 2.254679,6.75 1.253956,2.3356 2.924761,6.1029 3.712876,8.3716 1.90737,5.4908 4.208594,5.206 6.731865,-0.8331 z m 7.46727,0.1287 c -0.886021,-5.0292 -1.723756,-6.6387 -2.862541,-5.5 -0.368804,0.3689 -1.053434,2.8439 -1.521389,5.5 l -0.85083,4.8295 3.042794,0 3.04278,0 z m 2.09355,-22.0062 2.035514,-1.2898 -1.0116,-3.1873 c -1.28748,-4.0565 -4.436399,-4.0603 -8.486474,-0.01 l -3.17706,3.1771 2.05206,1.3 c 2.612009,1.6547 5.985855,1.6587 8.58756,0.01 z m -18.706395,-3.9577 c 4.291634,-4.2917 -1.327545,-9.5995 -7.94055,-7.5006 -3.9369754,1.2495 -4.9711199,4.7472 -2.2176896,7.5006 2.9305946,2.9306 7.2276446,2.9306 10.1582396,0 z"
       id="path3009"
       inkscape:connector-curvature="0"
       sodipodi:nodetypes="ccccccccccsccssscccsscsscsscccsscccccccssscccccsscsscccccccccsccssssscscssccssccscscccsccsccscssss" />
  </g>
</svg>
