<?xml version="1.0" encoding="UTF-8" standalone="no"?>
<!-- Created with Inkscape (http://www.inkscape.org/) -->

<svg
   xmlns:dc="http://purl.org/dc/elements/1.1/"
   xmlns:cc="http://creativecommons.org/ns#"
   xmlns:rdf="http://www.w3.org/1999/02/22-rdf-syntax-ns#"
   xmlns:svg="http://www.w3.org/2000/svg"
   xmlns="http://www.w3.org/2000/svg"
   xmlns:sodipodi="http://sodipodi.sourceforge.net/DTD/sodipodi-0.dtd"
   xmlns:inkscape="http://www.inkscape.org/namespaces/inkscape"
   id="svg3140"
   height="90"
   width="90"
   version="1.1"
   inkscape:version="0.48.4 r9939"
   sodipodi:docname="help.svg">
  <defs
     id="defs11" />
  <sodipodi:namedview
     pagecolor="#ffffff"
     bordercolor="#666666"
     borderopacity="1"
     objecttolerance="10"
     gridtolerance="10"
     guidetolerance="10"
     inkscape:pageopacity="0"
     inkscape:pageshadow="2"
     inkscape:window-width="1360"
     inkscape:window-height="702"
     id="namedview9"
     showgrid="false"
     inkscape:zoom="0.92709556"
     inkscape:cx="103.97165"
     inkscape:cy="55.340816"
     inkscape:window-x="0"
     inkscape:window-y="27"
     inkscape:window-maximized="1"
     inkscape:current-layer="layer1" />
  <metadata
     id="metadata3145">
    <rdf:RDF>
      <cc:Work
         rdf:about="">
        <dc:format>image/svg+xml</dc:format>
        <dc:type
           rdf:resource="http://purl.org/dc/dcmitype/StillImage" />
        <dc:title></dc:title>
      </cc:Work>
    </rdf:RDF>
  </metadata>
  <g
     id="layer1"
     transform="translate(0 -962.36)">
    <rect
       id="rect4198"
       style="color:#000000;fill:none"
       height="90"
       width="90"
       y="962.36"
       x="0" />
    <g
       id="text3006"
       style="fill:#808080"
       transform="matrix(0.92816039,0,0,0.92816039,4.1068095,75.523704)">
      <text
         xml:space="preserve"
         style="font-size:13.40049744px;font-style:normal;font-variant:normal;font-weight:normal;font-stretch:normal;line-height:125%;letter-spacing:0px;word-spacing:0px;fill:#808080;fill-opacity:1;stroke:none;font-family:Ubuntu;-inkscape-font-specification:Ubuntu"
         x="32.962711"
         y="1031.6575"
         id="text2988"
         sodipodi:linespacing="125%"><tspan
           sodipodi:role="line"
           id="tspan2990"
           x="32.962711"
           y="1031.6575"
           style="font-size:80.40298462px;fill:#808080;fill-opacity:1">!</tspan></text>
    </g>
    <path
       id="path3759"
       style="fill:#808080"
       d="m6 986.36v42c0 18 3 18 30 18h18c27 0 30 0 30-18v-42c0-18-3-18-30-18h-18c-27 0-30 0-30 18zm30-12h18c24 0 24 0 24 12v42c0 12 0 12-24 12h-18c-24 0-24 0-24-12v-42c0-12 0-12 24-12z" />
  </g>
</svg>
